<svg width="157" height="37" viewBox="0 0 157 37" fill="none" xmlns="http://www.w3.org/2000/svg">
<path d="M2.346 6.08493L1.999 5.20054C1.923 5.00834 1.769 4.81604 1.538 4.73914L0.653999 4.35463C0.537999 4.31613 0.537999 4.12394 0.653999 4.04704L1.538 3.70094C1.73 3.62404 1.923 3.47023 1.999 3.23953L2.384 2.35513C2.422 2.23973 2.615 2.23973 2.692 2.35513L3.038 3.23953C3.115 3.43173 3.268 3.62404 3.499 3.70094L4.383 4.08543C4.499 4.12393 4.499 4.31614 4.383 4.39304L3.499 4.73914C3.307 4.81604 3.115 4.96984 3.038 5.20054L2.653 6.08493C2.576 6.20023 2.384 6.20023 2.346 6.08493ZM37.336 19.5045C36.798 29.0404 28.915 36.5 19.38 36.5C14.496 36.5 9.92 34.5774 6.498 31.0783C3.076 27.5793 1.269 22.9651 1.384 18.0818C1.384 17.6972 1.423 17.3127 1.461 16.9282C1.461 16.8129 1.423 16.659 1.307 16.5821C0.499999 15.9669 0 15.0056 0 13.929C0 12.1218 1.423 10.6991 3.191 10.6222C3.23 10.6222 3.268 10.6222 3.345 10.6222C4.23 10.6222 5.037 10.9682 5.614 11.545C6.268 12.1602 6.652 13.0062 6.652 13.9674C6.652 15.467 5.652 16.7744 4.268 17.1589C4.114 17.1974 3.999 17.3512 3.999 17.505C3.999 17.7357 3.96 17.9279 3.96 18.1587C3.845 22.5806 5.575 26.7333 8.805 29.771C11.42 32.2319 14.881 33.7315 18.457 33.9238C26.762 34.3852 33.799 28.2714 34.683 20.235C34.722 20.0043 34.529 19.8121 34.299 19.8121H25.493C25.34 19.8121 25.186 19.9274 25.147 20.0812C24.455 22.619 22.11 24.5031 19.38 24.5031C15.957 24.5031 13.15 21.5808 13.381 18.1202C13.573 15.1594 15.957 12.7754 18.88 12.5447C21.84 12.314 24.417 14.2751 25.147 16.9282C25.186 17.082 25.34 17.1974 25.532 17.1974H35.145C35.76 17.1974 36.337 17.4281 36.721 17.8895C37.183 18.3125 37.375 18.9277 37.336 19.5045ZM22.802 18.5047C22.802 16.6206 21.264 15.0825 19.38 15.0825C17.495 15.0825 15.957 16.6206 15.957 18.5047C15.957 20.3888 17.495 21.9269 19.38 21.9269C21.264 21.9269 22.802 20.3888 22.802 18.5047ZM2.576 13.9674C2.576 14.3904 2.922 14.698 3.307 14.698C3.691 14.698 4.037 14.352 4.037 13.9674C4.037 13.5829 3.691 13.2369 3.307 13.2369C2.922 13.2369 2.576 13.5445 2.576 13.9674ZM6.383 10.2377C6.268 10.4299 6.037 10.4684 5.845 10.353C5.383 10.0454 4.845 9.81474 4.307 9.66094C4.037 9.62244 3.96 9.31483 4.076 9.08413C4.806 7.93063 5.652 6.81553 6.614 5.85423C9.882 2.54743 14.189 0.663234 18.803 0.509434C23.648 0.355634 28.262 2.08593 31.761 5.43123C32.607 6.23873 33.068 7.35383 32.991 8.54583C32.914 9.73783 32.376 10.8144 31.415 11.545C29.838 12.737 27.608 12.6601 26.185 11.3143C25.762 10.9298 25.34 10.5837 24.878 10.2761C24.724 10.1992 24.57 10.1992 24.417 10.3146C23.84 10.776 23.109 11.0836 22.302 11.0836C20.764 11.0836 19.456 10.0454 19.11 8.62274C19.033 8.35354 18.995 8.04593 18.995 7.77683C18.995 7.16153 19.187 6.54633 19.495 6.04643C20.072 5.08523 21.148 4.43153 22.34 4.43153C24.109 4.43153 25.532 5.81574 25.647 7.54614C25.647 7.66144 25.724 7.77683 25.839 7.85373C26.608 8.31513 27.339 8.85343 27.993 9.50713C28.493 9.96853 29.3 10.0069 29.838 9.58403C30.184 9.31483 30.377 8.93034 30.415 8.50734C30.454 8.08444 30.261 7.69994 29.954 7.39224C26.954 4.54684 22.994 3.04724 18.841 3.16264C13.612 3.23954 9.036 6.08494 6.383 10.2377ZM23.109 7.69994C23.109 7.27694 22.763 6.96933 22.379 6.96933C21.994 6.96933 21.648 7.31534 21.648 7.69994C21.648 8.12284 21.994 8.46893 22.379 8.46893C22.763 8.46893 23.109 8.12284 23.109 7.69994ZM17.688 6.12333C17.957 6.08493 18.188 6.31564 18.111 6.58484C17.995 6.96934 17.957 7.31534 17.957 7.69994C17.957 7.89214 17.957 8.08443 17.995 8.27663C18.034 8.46893 17.88 8.66114 17.688 8.69964C15.611 9.04574 13.689 10.0454 12.189 11.6219C10.305 13.5829 9.305 16.1592 9.421 18.8892C9.613 24.0033 13.804 28.1945 18.918 28.4252C21.071 28.5021 23.109 27.9253 24.84 26.8102C24.993 26.6949 25.032 26.5026 24.955 26.3104C24.763 25.8874 24.609 25.3875 24.609 24.8877C24.609 23.0035 26.185 21.4655 28.108 21.5808C29.8 21.6577 31.184 23.042 31.261 24.7339C31.338 26.6564 29.838 28.2329 27.954 28.2329C27.8 28.2329 27.647 28.2329 27.493 28.1945C27.377 28.1945 27.262 28.1945 27.185 28.2714C24.84 30.1555 21.917 31.1552 18.764 31.0014C12.304 30.7323 7.075 25.4644 6.806 19.0046C6.691 15.5824 7.921 12.314 10.305 9.81474C12.343 7.77684 14.919 6.46943 17.688 6.12333ZM27.224 24.8877C27.224 25.3106 27.57 25.6182 27.954 25.6182C28.339 25.6182 28.685 25.2722 28.685 24.8877C28.685 24.5031 28.339 24.1571 27.954 24.1571C27.57 24.1571 27.224 24.4647 27.224 24.8877Z" fill="url(#paint0_linear_1_614)"/>
<path d="M54.757 25.1801C53.641 25.1801 52.669 24.9881 51.841 24.6041C51.013 24.2201 50.323 23.7041 49.771 23.0561C49.231 22.3961 48.823 21.6641 48.547 20.8601C48.283 20.0441 48.151 19.2101 48.151 18.3581C48.151 17.5061 48.283 16.6721 48.547 15.8561C48.823 15.0401 49.237 14.3081 49.789 13.6601C50.341 13.0001 51.037 12.4781 51.877 12.0941C52.717 11.6981 53.695 11.5001 54.811 11.5001C55.687 11.5001 56.437 11.6141 57.061 11.8421C57.697 12.0581 58.225 12.3401 58.645 12.6881C59.077 13.0361 59.419 13.4081 59.671 13.8041C59.935 14.1881 60.133 14.5541 60.265 14.9021C60.397 15.2501 60.487 15.5381 60.535 15.7661C60.583 15.9821 60.607 16.0901 60.607 16.0901H58.159C58.159 16.0901 58.135 16.0121 58.087 15.8561C58.051 15.6881 57.967 15.4841 57.835 15.2441C57.703 15.0041 57.511 14.7641 57.259 14.5241C57.019 14.2841 56.701 14.0861 56.305 13.9301C55.909 13.7621 55.417 13.6781 54.829 13.6781C54.121 13.6781 53.503 13.8101 52.975 14.0741C52.459 14.3381 52.027 14.6921 51.679 15.1361C51.331 15.5801 51.073 16.0781 50.905 16.6301C50.737 17.1821 50.653 17.7461 50.653 18.3221C50.653 19.1021 50.809 19.8521 51.121 20.5721C51.433 21.2921 51.895 21.8801 52.507 22.3361C53.131 22.7921 53.899 23.0201 54.811 23.0201C55.867 23.0201 56.701 22.7321 57.313 22.1561C57.937 21.5801 58.291 20.8121 58.375 19.8521H54.739V17.9081H60.751V18.8981C60.751 20.2781 60.487 21.4361 59.959 22.3721C59.431 23.2961 58.711 23.9981 57.799 24.4781C56.899 24.9461 55.885 25.1801 54.757 25.1801ZM62.643 25.0001V15.4601H65.019V16.7741H65.109C65.277 16.4021 65.553 16.0601 65.937 15.7481C66.321 15.4361 66.897 15.2801 67.665 15.2801C67.905 15.2801 68.103 15.2981 68.259 15.3341C68.415 15.3581 68.493 15.3701 68.493 15.3701V17.6921C68.493 17.6921 68.403 17.6801 68.223 17.6561C68.055 17.6321 67.845 17.6201 67.593 17.6201C66.753 17.6201 66.117 17.8541 65.685 18.3221C65.253 18.7901 65.037 19.5461 65.037 20.5901V25.0001H62.643ZM74.373 25.1801C73.329 25.1801 72.441 24.9461 71.709 24.4781C70.977 24.0101 70.419 23.4041 70.035 22.6601C69.663 21.9041 69.477 21.0941 69.477 20.2301C69.477 19.3661 69.663 18.5621 70.035 17.8181C70.419 17.0621 70.977 16.4501 71.709 15.9821C72.441 15.5141 73.329 15.2801 74.373 15.2801C75.429 15.2801 76.317 15.5141 77.037 15.9821C77.769 16.4501 78.321 17.0621 78.693 17.8181C79.077 18.5621 79.269 19.3661 79.269 20.2301C79.269 21.0941 79.077 21.9041 78.693 22.6601C78.321 23.4041 77.769 24.0101 77.037 24.4781C76.317 24.9461 75.429 25.1801 74.373 25.1801ZM74.373 23.1821C74.913 23.1821 75.363 23.0441 75.723 22.7681C76.095 22.4921 76.377 22.1321 76.569 21.6881C76.761 21.2321 76.857 20.7461 76.857 20.2301C76.857 19.7021 76.761 19.2161 76.569 18.7721C76.377 18.3281 76.095 17.9681 75.723 17.6921C75.363 17.4161 74.913 17.2781 74.373 17.2781C73.845 17.2781 73.395 17.4161 73.023 17.6921C72.651 17.9681 72.369 18.3281 72.177 18.7721C71.985 19.2161 71.889 19.7021 71.889 20.2301C71.889 20.7461 71.985 21.2321 72.177 21.6881C72.369 22.1321 72.651 22.4921 73.023 22.7681C73.395 23.0441 73.845 23.1821 74.373 23.1821ZM84.387 25.1801C83.391 25.1801 82.635 24.8741 82.119 24.2621C81.615 23.6501 81.363 22.8641 81.363 21.9041V15.4601H83.739V21.5081C83.739 22.0241 83.877 22.4381 84.153 22.7501C84.429 23.0501 84.819 23.2001 85.323 23.2001C85.767 23.2001 86.127 23.0861 86.403 22.8581C86.679 22.6301 86.877 22.3361 86.997 21.9761C87.129 21.6161 87.195 21.2441 87.195 20.8601V15.4601H89.589V25.0001H87.195V23.6321H87.087C86.967 23.8481 86.793 24.0761 86.565 24.3161C86.349 24.5561 86.061 24.7601 85.701 24.9281C85.353 25.0961 84.915 25.1801 84.387 25.1801ZM91.822 25.0001V15.4601H94.216V16.8281H94.324C94.42 16.6601 94.57 16.4561 94.774 16.2161C94.978 15.9641 95.26 15.7481 95.62 15.5681C95.98 15.3761 96.436 15.2801 96.988 15.2801C97.72 15.2801 98.32 15.4481 98.788 15.7841C99.268 16.1081 99.622 16.5401 99.85 17.0801C100.09 17.6201 100.21 18.2021 100.21 18.8261V25.0001H97.816V19.1501C97.816 18.6341 97.672 18.1901 97.384 17.8181C97.096 17.4461 96.664 17.2601 96.088 17.2601C95.644 17.2601 95.284 17.3741 95.008 17.6021C94.732 17.8181 94.528 18.1001 94.396 18.4481C94.276 18.7961 94.216 19.1621 94.216 19.5461V25.0001H91.822ZM106.455 25.1801C105.747 25.1801 105.129 25.0421 104.601 24.7661C104.073 24.4781 103.629 24.1001 103.269 23.6321C102.921 23.1521 102.657 22.6181 102.477 22.0301C102.309 21.4421 102.225 20.8421 102.225 20.2301C102.225 19.6181 102.309 19.0181 102.477 18.4301C102.657 17.8421 102.921 17.3141 103.269 16.8461C103.629 16.3661 104.073 15.9881 104.601 15.7121C105.129 15.4241 105.747 15.2801 106.455 15.2801C107.067 15.2801 107.571 15.3821 107.967 15.5861C108.363 15.7781 108.675 15.9941 108.903 16.2341C109.131 16.4621 109.287 16.6481 109.371 16.7921H109.479V11.3201H111.873V25.0001H109.479V23.6681H109.371C109.287 23.8121 109.131 24.0041 108.903 24.2441C108.675 24.4841 108.363 24.7001 107.967 24.8921C107.571 25.0841 107.067 25.1801 106.455 25.1801ZM107.085 23.2181C107.625 23.2181 108.075 23.0741 108.435 22.7861C108.795 22.4861 109.065 22.1081 109.245 21.6521C109.425 21.1961 109.515 20.7221 109.515 20.2301C109.515 19.7381 109.425 19.2641 109.245 18.8081C109.065 18.3521 108.795 17.9801 108.435 17.6921C108.075 17.3921 107.625 17.2421 107.085 17.2421C106.545 17.2421 106.089 17.3921 105.717 17.6921C105.357 17.9801 105.087 18.3521 104.907 18.8081C104.727 19.2641 104.637 19.7381 104.637 20.2301C104.637 20.7221 104.727 21.1961 104.907 21.6521C105.087 22.1081 105.357 22.4861 105.717 22.7861C106.089 23.0741 106.545 23.2181 107.085 23.2181ZM114.467 25.0001V11.6801H119.255C120.335 11.6801 121.277 11.8721 122.081 12.2561C122.897 12.6281 123.575 13.1321 124.115 13.7681C124.655 14.4041 125.057 15.1181 125.321 15.9101C125.597 16.7021 125.735 17.5121 125.735 18.3401C125.735 19.1681 125.597 19.9781 125.321 20.7701C125.057 21.5621 124.655 22.2761 124.115 22.9121C123.575 23.5481 122.897 24.0581 122.081 24.4421C121.277 24.8141 120.335 25.0001 119.255 25.0001H114.467ZM119.147 13.8221H116.915V22.8401H119.147C120.083 22.8401 120.857 22.6241 121.469 22.1921C122.081 21.7481 122.537 21.1841 122.837 20.5001C123.137 19.8041 123.287 19.0781 123.287 18.3221C123.287 17.5781 123.137 16.8641 122.837 16.1801C122.537 15.4841 122.081 14.9201 121.469 14.4881C120.857 14.0441 120.083 13.8221 119.147 13.8221ZM132.272 25.1801C131.456 25.1801 130.748 25.0421 130.148 24.7661C129.56 24.4781 129.068 24.1001 128.672 23.6321C128.288 23.1521 128 22.6181 127.808 22.0301C127.616 21.4421 127.52 20.8421 127.52 20.2301C127.52 19.6181 127.61 19.0241 127.79 18.4481C127.982 17.8601 128.264 17.3261 128.636 16.8461C129.02 16.3661 129.506 15.9881 130.094 15.7121C130.682 15.4241 131.378 15.2801 132.182 15.2801C133.046 15.2801 133.808 15.4721 134.468 15.8561C135.128 16.2401 135.644 16.8041 136.016 17.5481C136.388 18.2801 136.574 19.1921 136.574 20.2841V20.8961H129.932C129.968 21.5441 130.19 22.1081 130.598 22.5881C131.006 23.0561 131.564 23.2901 132.272 23.2901C132.68 23.2901 133.016 23.2241 133.28 23.0921C133.544 22.9601 133.748 22.8101 133.892 22.6421C134.036 22.4621 134.138 22.3121 134.198 22.1921C134.258 22.0601 134.288 21.9941 134.288 21.9941H136.502C136.502 21.9941 136.472 22.1021 136.412 22.3181C136.352 22.5221 136.238 22.7861 136.07 23.1101C135.914 23.4221 135.68 23.7401 135.368 24.0641C135.056 24.3761 134.648 24.6401 134.144 24.8561C133.64 25.0721 133.016 25.1801 132.272 25.1801ZM129.932 19.3301H134.27C134.234 18.5861 134.012 18.0341 133.604 17.6741C133.196 17.3141 132.716 17.1341 132.164 17.1341C131.552 17.1341 131.042 17.3321 130.634 17.7281C130.226 18.1121 129.992 18.6461 129.932 19.3301ZM142.52 25.1801C141.74 25.1801 141.098 25.0781 140.594 24.8741C140.09 24.6581 139.688 24.3941 139.388 24.0821C139.1 23.7581 138.884 23.4401 138.74 23.1281C138.596 22.8161 138.5 22.5581 138.452 22.3541C138.416 22.1381 138.398 22.0301 138.398 22.0301H140.666C140.666 22.0301 140.684 22.0961 140.72 22.2281C140.768 22.3601 140.852 22.5161 140.972 22.6961C141.104 22.8641 141.302 23.0141 141.566 23.1461C141.83 23.2781 142.178 23.3441 142.61 23.3441C143.126 23.3441 143.498 23.2361 143.726 23.0201C143.954 22.7921 144.068 22.5401 144.068 22.2641C144.068 22.0001 143.966 21.7901 143.762 21.6341C143.57 21.4661 143.282 21.3401 142.898 21.2561L141.584 20.9861C141.056 20.8781 140.564 20.7221 140.108 20.5181C139.652 20.3021 139.28 20.0141 138.992 19.6541C138.704 19.2821 138.56 18.8081 138.56 18.2321C138.56 17.3801 138.884 16.6781 139.532 16.1261C140.18 15.5621 141.062 15.2801 142.178 15.2801C142.886 15.2801 143.468 15.3761 143.924 15.5681C144.392 15.7601 144.764 16.0001 145.04 16.2881C145.328 16.5761 145.538 16.8641 145.67 17.1521C145.814 17.4401 145.904 17.6861 145.94 17.8901C145.988 18.0821 146.012 18.1781 146.012 18.1781H143.816C143.816 18.1781 143.798 18.1241 143.762 18.0161C143.726 17.8961 143.648 17.7641 143.528 17.6201C143.42 17.4761 143.252 17.3501 143.024 17.2421C142.808 17.1221 142.514 17.0621 142.142 17.0621C141.638 17.0621 141.278 17.1701 141.062 17.3861C140.858 17.6021 140.756 17.8301 140.756 18.0701C140.756 18.3341 140.87 18.5381 141.098 18.6821C141.326 18.8261 141.62 18.9341 141.98 19.0061L143.222 19.2761C144.11 19.4561 144.836 19.7681 145.4 20.2121C145.976 20.6561 146.264 21.2981 146.264 22.1381C146.264 22.7021 146.114 23.2181 145.814 23.6861C145.526 24.1421 145.1 24.5081 144.536 24.7841C143.984 25.0481 143.312 25.1801 142.52 25.1801ZM148.27 25.0001V11.3201H150.664V19.2401L154.03 15.4601H156.856L152.896 19.8161L156.982 25.0001H154.12L150.664 20.6081V25.0001H148.27Z" fill="white"/>
<defs>
<linearGradient id="paint0_linear_1_614" x1="18.671" y1="0.500034" x2="18.671" y2="36.5" gradientUnits="userSpaceOnUse">
<stop stop-color="white"/>
<stop offset="1" stop-color="#F8F8F8"/>
</linearGradient>
</defs>
</svg>
